<svg width="177" height="42" viewBox="0 0 177 42" fill="none" xmlns="http://www.w3.org/2000/svg">
<path d="M32.5728 40.1739L27.083 38.325L24.6583 33.1891H3.86573L0 35.3804L12.4664 5.82065L9.90451 0L15.989 2.1913L32.5728 40.1739ZM4.80357 30.9522H23.7205L13.816 9.03913L4.80357 30.9522Z" fill="#EAE9E1"/>
<path d="M56.0417 0.730435L57.0939 5.82065C57.0939 5.82065 54.166 3.83167 53.068 3.69783C51.9701 3.56398 46.343 3.69783 46.343 3.69783V35.4033H41.3336V3.69783C41.3336 3.69783 35.5007 3.65217 34.7687 3.69783C33.6707 3.7663 30.7429 5.82065 30.7429 5.82065L31.5663 0.730435H56.0417Z" fill="#EAE9E1"/>
<path d="M67.9133 42L63.613 35.4033V0.730435H67.9133V42Z" fill="#EAE9E1"/>
<path d="M81.8613 24.279C82.1261 24.9646 82.4455 25.5878 82.8195 26.1487C83.209 26.7096 83.6842 27.1615 84.2451 27.5043C84.806 27.8314 85.476 27.995 86.255 27.995C87.3145 27.995 88.1403 27.7068 88.7324 27.1303C89.34 26.5382 89.6438 25.7904 89.6438 24.8867C89.6438 24.0921 89.4646 23.4533 89.1063 22.9703C88.7479 22.4873 88.2805 22.0977 87.704 21.8017C87.1431 21.4901 86.5511 21.2174 85.9278 20.9837C85.4604 20.8123 84.9696 20.6098 84.4554 20.3761C83.9569 20.1268 83.4894 19.8308 83.0532 19.488C82.6169 19.1296 82.2586 18.7012 81.9781 18.2026C81.7132 17.704 81.5808 17.1041 81.5808 16.403C81.5808 15.624 81.7678 14.9384 82.1417 14.3463C82.5156 13.7387 83.0376 13.2713 83.7076 12.9441C84.3775 12.6013 85.1332 12.4299 85.9746 12.4299C86.8471 12.4299 87.595 12.5935 88.2182 12.9207C88.857 13.2479 89.3867 13.6608 89.8074 14.1594C90.2281 14.658 90.5475 15.1721 90.7656 15.7019L89.6438 16.3329C89.4724 15.9122 89.2231 15.4993 88.8959 15.0942C88.5843 14.6891 88.187 14.3541 87.704 14.0893C87.221 13.8088 86.6212 13.6686 85.9045 13.6686C84.954 13.6686 84.2217 13.9179 83.7076 14.4165C83.1934 14.8995 82.9363 15.5071 82.9363 16.2394C82.9363 16.847 83.0843 17.369 83.3804 17.8053C83.6764 18.2415 84.1205 18.6388 84.7125 18.9972C85.3046 19.34 86.0369 19.6672 86.9094 19.9788C87.3612 20.1502 87.8287 20.3605 88.3117 20.6098C88.7947 20.8591 89.2309 21.1707 89.6205 21.5446C90.0255 21.9186 90.3527 22.3704 90.602 22.9002C90.8513 23.4143 90.976 24.0298 90.976 24.7465C90.976 25.4164 90.8513 26.0241 90.602 26.5694C90.3683 27.1147 90.0333 27.5899 89.5971 27.995C89.1764 28.3846 88.6778 28.6884 88.1013 28.9065C87.5248 29.1091 86.9016 29.2103 86.2316 29.2103C85.2812 29.2103 84.4477 29.0156 83.7309 28.6261C83.0142 28.2365 82.4144 27.7146 81.9314 27.0602C81.4484 26.4058 81.0744 25.6969 80.8096 24.9334L81.8613 24.279ZM93.7668 13.8556V12.6403H103.653V13.8556H99.3525V29H98.0671V13.8556H93.7668ZM107.233 12.6403H108.518V23.7181C108.518 25.0269 108.861 26.0708 109.546 26.8499C110.232 27.6289 111.206 28.0184 112.468 28.0184C113.73 28.0184 114.703 27.6289 115.389 26.8499C116.075 26.0708 116.417 25.0269 116.417 23.7181V12.6403H117.703V23.7181C117.703 24.5283 117.586 25.2762 117.352 25.9618C117.119 26.6317 116.776 27.2082 116.324 27.6912C115.872 28.1742 115.319 28.5559 114.665 28.8364C114.026 29.1013 113.293 29.2337 112.468 29.2337C111.642 29.2337 110.902 29.1013 110.247 28.8364C109.609 28.5559 109.063 28.1742 108.611 27.6912C108.16 27.2082 107.817 26.6317 107.583 25.9618C107.349 25.2762 107.233 24.5283 107.233 23.7181V12.6403ZM122.925 12.6403H124.21V29H122.925V12.6403ZM127.365 29H123.626V27.7146H127.365C128.378 27.7146 129.297 27.551 130.123 27.2238C130.965 26.8966 131.681 26.437 132.273 25.8449C132.865 25.2373 133.317 24.5128 133.629 23.6714C133.956 22.8145 134.12 21.864 134.12 20.8201C134.12 19.7762 133.956 18.8336 133.629 17.9922C133.317 17.1353 132.865 16.4108 132.273 15.8187C131.681 15.2111 130.965 14.7437 130.123 14.4165C129.297 14.0893 128.378 13.9257 127.365 13.9257H123.626V12.6403H127.365C128.955 12.6403 130.349 12.983 131.549 13.6686C132.764 14.3541 133.707 15.3123 134.377 16.5432C135.062 17.7585 135.405 19.1842 135.405 20.8201C135.405 22.4561 135.062 23.8895 134.377 25.1204C133.707 26.3357 132.764 27.2861 131.549 27.9717C130.349 28.6572 128.955 29 127.365 29ZM139.755 12.6403H141.04V29H139.755V12.6403ZM146.737 20.8201C146.737 22.1757 147.025 23.3909 147.601 24.466C148.194 25.5411 148.996 26.3902 150.009 27.0135C151.037 27.6211 152.206 27.9249 153.514 27.9249C154.823 27.9249 155.984 27.6211 156.997 27.0135C158.025 26.3902 158.827 25.5411 159.404 24.466C159.98 23.3909 160.269 22.1757 160.269 20.8201C160.269 19.449 159.98 18.2337 159.404 17.1742C158.827 16.0992 158.025 15.2578 156.997 14.6502C155.984 14.0269 154.823 13.7153 153.514 13.7153C152.206 13.7153 151.037 14.0269 150.009 14.6502C148.996 15.2578 148.194 16.0992 147.601 17.1742C147.025 18.2337 146.737 19.449 146.737 20.8201ZM145.381 20.8201C145.381 19.6204 145.584 18.5142 145.989 17.5014C146.394 16.4731 146.963 15.585 147.695 14.8371C148.427 14.0737 149.284 13.4816 150.266 13.0609C151.263 12.6403 152.346 12.4299 153.514 12.4299C154.683 12.4299 155.758 12.6403 156.74 13.0609C157.737 13.4816 158.601 14.0737 159.334 14.8371C160.066 15.585 160.635 16.4731 161.04 17.5014C161.445 18.5142 161.647 19.6204 161.647 20.8201C161.647 22.0198 161.445 23.1339 161.04 24.1622C160.635 25.1749 160.066 26.063 159.334 26.8265C158.601 27.5744 157.737 28.1586 156.74 28.5793C155.758 29 154.683 29.2103 153.514 29.2103C152.346 29.2103 151.263 29 150.266 28.5793C149.284 28.1586 148.427 27.5744 147.695 26.8265C146.963 26.063 146.394 25.1749 145.989 24.1622C145.584 23.1339 145.381 22.0198 145.381 20.8201ZM166.162 24.279C166.427 24.9646 166.747 25.5878 167.121 26.1487C167.51 26.7096 167.985 27.1615 168.546 27.5043C169.107 27.8314 169.777 27.995 170.556 27.995C171.616 27.995 172.441 27.7068 173.033 27.1303C173.641 26.5382 173.945 25.7904 173.945 24.8867C173.945 24.0921 173.766 23.4533 173.407 22.9703C173.049 22.4873 172.582 22.0977 172.005 21.8017C171.444 21.4901 170.852 21.2174 170.229 20.9837C169.761 20.8123 169.271 20.6098 168.756 20.3761C168.258 20.1268 167.79 19.8308 167.354 19.488C166.918 19.1296 166.56 18.7012 166.279 18.2026C166.014 17.704 165.882 17.1041 165.882 16.403C165.882 15.624 166.069 14.9384 166.443 14.3463C166.817 13.7387 167.339 13.2713 168.009 12.9441C168.679 12.6013 169.434 12.4299 170.276 12.4299C171.148 12.4299 171.896 12.5935 172.519 12.9207C173.158 13.2479 173.688 13.6608 174.108 14.1594C174.529 14.658 174.849 15.1721 175.067 15.7019L173.945 16.3329C173.773 15.9122 173.524 15.4993 173.197 15.0942C172.885 14.6891 172.488 14.3541 172.005 14.0893C171.522 13.8088 170.922 13.6686 170.206 13.6686C169.255 13.6686 168.523 13.9179 168.009 14.4165C167.494 14.8995 167.237 15.5071 167.237 16.2394C167.237 16.847 167.385 17.369 167.681 17.8053C167.977 18.2415 168.422 18.6388 169.014 18.9972C169.606 19.34 170.338 19.6672 171.21 19.9788C171.662 20.1502 172.13 20.3605 172.613 20.6098C173.096 20.8591 173.532 21.1707 173.921 21.5446C174.327 21.9186 174.654 22.3704 174.903 22.9002C175.152 23.4143 175.277 24.0298 175.277 24.7465C175.277 25.4164 175.152 26.0241 174.903 26.5694C174.669 27.1147 174.334 27.5899 173.898 27.995C173.477 28.3846 172.979 28.6884 172.402 28.9065C171.826 29.1091 171.203 29.2103 170.533 29.2103C169.582 29.2103 168.749 29.0156 168.032 28.6261C167.315 28.2365 166.715 27.7146 166.232 27.0602C165.749 26.4058 165.375 25.6969 165.111 24.9334L166.162 24.279Z" fill="#EAE9E1"/>
</svg>
